<svg height="512" viewBox="0 0 512 512" width="512" xmlns="http://www.w3.org/2000/svg"><g id="Isolation-2" data-name="Isolation"><g id="Filled"><path d="m40 504v-472a24 24 0 0 1 24-24h384a24 24 0 0 1 24 24v472z" fill="#e3e2e8"/><path d="m448.99 8.025c-34.957 218.111-197.674 393.522-408.99 447.067v48.908h432v-472a24 24 0 0 0 -23.01-23.975z" fill="#d2d1db"/><path d="m80 200h160v128h-160z" fill="#bce7f7"/><path d="m272 200h160v128h-160z" fill="#bce7f7"/><path d="m80 40h160v128h-160z" fill="#bce7f7"/><path d="m80 156.542v11.458h160v-128h-11.778c-25.69 51.347-90.19 105.287-148.222 116.542z" fill="#a7d9e8"/><path d="m272 40h160v128h-160z" fill="#bce7f7"/><path d="m272 156.542v11.458h160v-128h-11.778c-25.69 51.347-90.19 105.287-148.222 116.542z" fill="#a7d9e8"/><path d="m80 316.542v11.458h160v-128h-11.778c-25.69 51.347-90.19 105.287-148.222 116.542z" fill="#a7d9e8"/><path d="m272 316.542v11.458h160v-128h-11.778c-25.69 51.347-90.19 105.287-148.222 116.542z" fill="#a7d9e8"/><path d="m168 504v-120a24 24 0 0 1 24-24h128a24 24 0 0 1 24 24v120z" fill="#d8ad82"/><path d="m376 504v-120a24 24 0 0 1 24-24 24 24 0 0 1 24 24v120z" fill="#bce7f7"/><path d="m88 504v-120a24 24 0 0 1 24-24 24 24 0 0 1 24 24v120z" fill="#bce7f7"/><path d="m320 168v-24a32 32 0 0 1 32-32 32 32 0 0 1 32 32v24z" fill="#9ba3d1"/><path d="m320 328v-24a32 32 0 0 1 32-32 32 32 0 0 1 32 32v24z" fill="#f27c6d"/><path d="m128 328v-24a32 32 0 0 1 32-32 32 32 0 0 1 32 32v24z" fill="#9ba3d1"/><circle cx="352" cy="96" fill="#ffdecf" r="24"/><circle cx="352" cy="256" fill="#ffdecf" r="24"/><circle cx="160" cy="256" fill="#ffdecf" r="24"/><path d="m320 360h-14.345a184.269 184.269 0 0 1 -137.655 131.626v12.374h176v-120a24 24 0 0 0 -24-24z" fill="#cc9f76"/><circle cx="192" cy="384" fill="#e0cab8" r="16"/><circle cx="224" cy="392" fill="#e0cab8" r="8"/><circle cx="52" cy="28" fill="#f9f8ff" r="12"/><circle cx="56" cy="56" fill="#f9f8ff" r="8"/><path d="m128 168v-24a32 32 0 0 1 32-32 32 32 0 0 1 32 32v24z" fill="#f27c6d"/><circle cx="160" cy="96" fill="#ffdecf" r="24"/><g fill="#495268"><path d="m160 72a24 24 0 0 0 -24 24h48a24 24 0 0 0 -24-24z"/><path d="m352 72a24 24 0 0 0 -24 24h48a24 24 0 0 0 -24-24z"/><path d="m160 232a24 24 0 0 0 -24 24h48a24 24 0 0 0 -24-24z"/><path d="m352 232a24 24 0 0 0 -24 24h48a24 24 0 0 0 -24-24z"/></g><path d="m181.289 120.116a76.155 76.155 0 0 1 -39.353 47.884h50.064v-24a31.915 31.915 0 0 0 -10.711-23.884z" fill="#ed6464"/><path d="m373.289 120.116a76.155 76.155 0 0 1 -39.353 47.884h50.064v-24a31.915 31.915 0 0 0 -10.711-23.884z" fill="#8a95c4"/><path d="m181.289 280.116a76.155 76.155 0 0 1 -39.353 47.884h50.064v-24a31.915 31.915 0 0 0 -10.711-23.884z" fill="#8a95c4"/><path d="m373.289 280.116a76.155 76.155 0 0 1 -39.353 47.884h50.064v-24a31.915 31.915 0 0 0 -10.711-23.884z" fill="#ed6464"/></g><g id="Outline"><path d="m504 496h-24v-464a32.036 32.036 0 0 0 -32-32h-320a8 8 0 0 0 0 16h320a16.019 16.019 0 0 1 16 16v464h-32v-112a32 32 0 0 0 -64 0v112h-16v-112a32.036 32.036 0 0 0 -32-32h-128a32.036 32.036 0 0 0 -32 32v112h-16v-112a32 32 0 0 0 -64 0v112h-32v-464a16.019 16.019 0 0 1 16-16 8 8 0 0 0 8-8c0-16.807-40-6.495-40 24v464h-24a8 8 0 0 0 0 16h496a8 8 0 0 0 0-16zm-376 0h-32v-32h32zm0-48h-32v-32h32zm0-48h-32v-16a16 16 0 0 1 32 0zm120 96h-72v-112a16.019 16.019 0 0 1 16-16h56zm88 0h-72v-128h56a16.019 16.019 0 0 1 16 16zm80 0h-32v-32h32zm0-48h-32v-32h32zm0-48h-32v-16a16 16 0 0 1 32 0z"/><path d="m72 168a8 8 0 0 0 8 8h160a8 8 0 0 0 8-8v-128a8 8 0 0 0 -8-8h-160a8 8 0 0 0 -8 8zm112-8h-48c1.111-9.321-4.116-25.161 9.8-35.335a31.9 31.9 0 0 0 28.4 0c13.949 10.199 8.638 25.587 9.8 35.335zm-40-64a16 16 0 1 1 16 16 16.019 16.019 0 0 1 -16-16zm-56-48h144v112h-32c-1.11-8.51 4.883-29.845-13.553-46.008 14.336-21.007-.663-49.992-26.447-49.992a31.982 31.982 0 0 0 -26.447 49.992c-18.509 16.227-12.41 37.251-13.553 46.008h-32z"/><path d="m272 176h160a8 8 0 0 0 8-8v-128a8 8 0 0 0 -8-8h-160a8 8 0 0 0 -8 8v128a8 8 0 0 0 8 8zm104-16h-48c1.111-9.321-4.116-25.161 9.8-35.335a31.9 31.9 0 0 0 28.4 0c13.949 10.199 8.638 25.587 9.8 35.335zm-40-64a16 16 0 1 1 16 16 16.019 16.019 0 0 1 -16-16zm-56-48h144v112h-32c-1.11-8.51 4.883-29.845-13.553-46.008 14.336-21.007-.663-49.992-26.447-49.992-25.752 0-40.806 28.952-26.447 49.992-18.509 16.227-12.41 37.251-13.553 46.008h-32z"/><path d="m240 192h-160a8 8 0 0 0 -8 8v128a8 8 0 0 0 8 8h160a8 8 0 0 0 8-8v-128a8 8 0 0 0 -8-8zm-56 128h-48c1.111-9.321-4.116-25.161 9.8-35.335a31.9 31.9 0 0 0 28.4 0c13.949 10.199 8.638 25.587 9.8 35.335zm-40-64a16 16 0 1 1 16 16 16.019 16.019 0 0 1 -16-16zm88 64h-32c-1.11-8.51 4.883-29.845-13.553-46.008 14.336-21.007-.663-49.992-26.447-49.992-25.752 0-40.806 28.952-26.447 49.992-18.509 16.227-12.41 37.251-13.553 46.008h-32v-112h144z"/><path d="m264 328a8 8 0 0 0 8 8h160a8 8 0 0 0 8-8v-128a8 8 0 0 0 -8-8h-160a8 8 0 0 0 -8 8zm112-8h-48c1.111-9.321-4.116-25.161 9.8-35.335a31.9 31.9 0 0 0 28.4 0c13.949 10.199 8.638 25.587 9.8 35.335zm-40-64a16 16 0 1 1 16 16 16.019 16.019 0 0 1 -16-16zm-56-48h144v112h-32c-1.11-8.51 4.883-29.845-13.553-46.008 14.336-21.007-.663-49.992-26.447-49.992-25.752 0-40.806 28.952-26.447 49.992-18.509 16.227-12.41 37.251-13.553 46.008h-32z"/><path d="m288 416a8 8 0 0 0 -8 8v24a8 8 0 0 0 16 0v-24a8 8 0 0 0 -8-8z"/><path d="m224 456a8 8 0 0 0 8-8v-24a8 8 0 0 0 -16 0v24a8 8 0 0 0 8 8z"/><circle cx="97" cy="8" r="8"/></g></g></svg>