<?xml version="1.0"?>
<svg xmlns="http://www.w3.org/2000/svg" viewBox="0 0 512 512" width="512" height="512"><g id="Boy_or_Girl" data-name="Boy or Girl"><g id="Filled"><path d="M120,104h0A112,112,0,0,0,8,216v16c0,29.307,39.264,51.252,84.913,72H96c39.159,0,131.971-56.761,135.859-93.647A112,112,0,0,0,120,104Z" style="fill:#8adfea"/><path d="M216,168a16,16,0,0,0-16-16h0a80,80,0,0,0-80-80h0a80,80,0,0,0-80,80h0a16,16,0,0,0-16,16h0a16,16,0,0,0,16,16h0a32,32,0,0,0,32,32h96a32,32,0,0,0,32-32h0a16,16,0,0,0,16-16Z" style="fill:#ffe7de"/><path d="M8,232V392A112,112,0,0,0,120,504h0A112,112,0,0,0,231.874,397.237C226.086,329.251,8,301.071,8,232Z" style="fill:#b2ebf2"/><path d="M96,304H92.913c61.937,28.151,135.629,54.1,138.961,93.237.08-1.736.126-3.481.126-5.237V216q0-2.841-.141-5.647C227.971,247.239,135.159,304,96,304Z" style="fill:#8adfea"/><path d="M231.064,392.294A180.048,180.048,0,0,1,77.719,495.735,111.648,111.648,0,0,0,120,504h0A112,112,0,0,0,231.874,397.237,32.786,32.786,0,0,0,231.064,392.294Z" style="fill:#8adfea"/><path d="M231.859,210.353a111.363,111.363,0,0,0-12.488-46.059,144.036,144.036,0,0,1-199.848,94.4C34.457,275.581,62.244,290.061,92.913,304H96C135.159,304,227.971,247.239,231.859,210.353Z" style="fill:#4dd0e1"/><path d="M200,152a79.67,79.67,0,0,0-7.807-34.5A136,136,0,0,1,50.057,207.28,31.879,31.879,0,0,0,72,216h96a32,32,0,0,0,32-32h0a16,16,0,0,0,16-16h0A16,16,0,0,0,200,152Z" style="fill:#f9d8cd"/><circle cx="96" cy="96" r="16" style="fill:#fff5f2"/><circle cx="128" cy="112" r="8" style="fill:#fff5f2"/><circle cx="48" cy="352" r="16" style="fill:#e0f7fa"/><circle cx="80" cy="368" r="8" style="fill:#e0f7fa"/><path d="M392,104h0A112,112,0,0,0,280,216v16c0,29.307,39.264,51.252,84.913,72H368c39.159,0,131.971-56.761,135.859-93.647A112,112,0,0,0,392,104Z" style="fill:#f4abc3"/><path d="M488,168a16,16,0,0,0-16-16h0a80,80,0,0,0-80-80h0a80,80,0,0,0-80,80h0a16,16,0,0,0-16,16h0a16,16,0,0,0,16,16h0a32,32,0,0,0,32,32h96a32,32,0,0,0,32-32h0a16,16,0,0,0,16-16Z" style="fill:#ffe7de"/><path d="M280,232V392A112,112,0,0,0,392,504h0A112,112,0,0,0,503.874,397.237C498.086,329.251,280,301.071,280,232Z" style="fill:#f8bbd0"/><path d="M368,304h-3.087c61.937,28.151,135.629,54.1,138.961,93.237.08-1.736.126-3.481.126-5.237V216q0-2.841-.141-5.647C499.971,247.239,407.159,304,368,304Z" style="fill:#f4abc3"/><path d="M503.064,392.294A180.048,180.048,0,0,1,349.719,495.735,111.648,111.648,0,0,0,392,504h0A112,112,0,0,0,503.874,397.237,32.786,32.786,0,0,0,503.064,392.294Z" style="fill:#f4abc3"/><path d="M503.859,210.353a111.363,111.363,0,0,0-12.488-46.059,144.036,144.036,0,0,1-199.848,94.4c14.934,16.889,42.721,31.369,73.39,45.308H368C407.159,304,499.971,247.239,503.859,210.353Z" style="fill:#f095b4"/><path d="M472,152a79.67,79.67,0,0,0-7.807-34.5A136,136,0,0,1,322.057,207.28,31.879,31.879,0,0,0,344,216h96a32,32,0,0,0,32-32h0a16,16,0,0,0,16-16h0A16,16,0,0,0,472,152Z" style="fill:#f9d8cd"/><circle cx="368" cy="96" r="16" style="fill:#fff5f2"/><circle cx="400" cy="112" r="8" style="fill:#fff5f2"/><circle cx="320" cy="352" r="16" style="fill:#fce4ec"/><circle cx="352" cy="368" r="8" style="fill:#fce4ec"/><path d="M410.477,32.6,392,48,373.523,32.6A18,18,0,0,0,344,46.431V65.569A18,18,0,0,0,373.523,79.4L392,64l18.477,15.4A18,18,0,0,0,440,65.569V46.431A18,18,0,0,0,410.477,32.6Z" style="fill:#f8bbd0"/><circle cx="360" cy="40" r="8" style="fill:#fce4ec"/><path d="M410.477,32.6,392,48l-1.617-1.347a35.947,35.947,0,0,1-45.813,23.47A18.017,18.017,0,0,0,373.523,79.4L392,64l18.477,15.4A18,18,0,0,0,440,65.569V46.431A18,18,0,0,0,410.477,32.6Z" style="fill:#f4abc3"/></g><g id="Outline"><path d="M32.58,190.83A40,40,0,0,0,72,224h96a40,40,0,0,0,39.42-33.17,24.008,24.008,0,0,0,.33-45.55,88,88,0,0,0-65.642-78.451c14.694-13.212,17.986-28.232,15.3-39.61C153.625,11.193,138.242,0,120,0a24,24,0,0,0,0,48,8,8,0,0,0,0-16,8,8,0,0,1,0-16c10.958,0,19.733,5.986,21.836,14.9,2.115,8.961-3.111,22.256-23.833,33.135A88.157,88.157,0,0,0,99.15,66.49a8,8,0,0,0,1.89,15.77,7.58,7.58,0,0,0,1.89-.23A72.934,72.934,0,0,1,119.982,80l.024,0h.022A72,72,0,0,1,192,152v7.95l8,.05a8,8,0,0,1,0,16h-7.95l-.05,8a24.084,24.084,0,0,1-24,24H72a24.084,24.084,0,0,1-24-24v-7.95L40,176a8,8,0,0,1,0-16h7.95l.05-8a72.017,72.017,0,0,1,9.93-36.52,8,8,0,0,0-6.88-12.06,8.055,8.055,0,0,0-6.9,3.93,87.5,87.5,0,0,0-11.9,37.93,24.006,24.006,0,0,0,.33,45.55Z"/><path d="M72.29,95.78a8,8,0,1,0-6.42-3.22A7.963,7.963,0,0,0,72.29,95.78Z"/><path d="M72,160H88a8,8,0,0,0,0-16H72a8,8,0,0,0,0,16Z"/><path d="M168,160a8,8,0,0,0,0-16H152a8,8,0,0,0,0,16Z"/><path d="M56.39,277.93a8,8,0,1,0,3.89,1.01A7.995,7.995,0,0,0,56.39,277.93Z"/><path d="M239.512,205.271c-.054-.606-.1-1.213-.165-1.818a8,8,0,0,0-15.914,1.653c.175,1.684.305,3.376.4,5.068-2.789,19.458-41.407,52.905-85.214,73.261a8,8,0,1,0,6.742,14.51C169.921,286.532,204.148,265,224,241.955V365.347c-.041-.042-.079-.085-.12-.127-15.41-15.76-39.2-28.28-60.44-38.44-13-6.2-26.92-12.28-40.38-18.17-11.56-5.06-23.52-10.29-34.67-15.5a7.933,7.933,0,0,0-3.38-.75,8.03,8.03,0,0,0-7.25,4.62,8,8,0,0,0,3.87,10.63c11.46,5.34,23.57,10.65,35.29,15.77,21.57,9.44,43.87,19.21,62.02,29.24,14.9,8.22,26.16,16.21,33.47,23.75,7.04,7.289,10.728,14.047,11.45,21.05A104,104,0,0,1,16,392V266.638a101.145,101.145,0,0,0,8.6,7.872,8,8,0,0,0,10.13-12.38c-6.28-5.14-11.04-10.27-14.12-15.25A27.624,27.624,0,0,1,16,232V216a105.959,105.959,0,0,1,.567-10.894A8,8,0,0,0,.653,203.453,121.969,121.969,0,0,0,0,216V392a120,120,0,0,0,239.516,10.711A7.918,7.918,0,0,0,240,400c0-.973-.046-1.942-.115-2.909.07-1.689.115-3.385.115-5.091V216c0-1.773-.048-3.558-.128-5.346.079-.888.128-1.773.128-2.654A7.966,7.966,0,0,0,239.512,205.271Z"/><path d="M288,168a24,24,0,0,0,16.578,22.837A40.012,40.012,0,0,0,344,224h96a40.064,40.064,0,0,0,39.415-33.162,24.01,24.01,0,0,0,.336-45.554,87.06,87.06,0,0,0-18.243-47.263,8,8,0,0,0-12.635,9.818A71.327,71.327,0,0,1,464,152v8h8a8,8,0,1,1,0,16h-8v8a24.027,24.027,0,0,1-24,24H344a23.992,23.992,0,0,1-24-24v-8h-8a8,8,0,1,1,0-16h8v-8a71.327,71.327,0,0,1,15.127-44.161,8,8,0,0,0-12.635-9.818,87.056,87.056,0,0,0-18.242,47.252A24,24,0,0,0,288,168Z"/><path d="M344,144a8,8,0,0,0,0,16h16a8,8,0,0,0,0-16Z"/><path d="M424,152a8,8,0,0,0,8,8h16a8,8,0,0,0,0-16H432A8,8,0,0,0,424,152Z"/><path d="M328.39,277.93a8,8,0,1,0,3.89,1.01A8,8,0,0,0,328.39,277.93Z"/><path d="M512,208a7.962,7.962,0,0,0-.488-2.729c-.054-.607-.1-1.214-.165-1.819a8,8,0,0,0-15.914,1.655c.175,1.683.305,3.375.4,5.066-2.788,19.458-41.407,52.9-85.214,73.262a8,8,0,1,0,6.742,14.51c24.56-11.413,58.787-32.94,78.639-55.99V365.347c-.041-.042-.079-.085-.12-.127-15.41-15.76-39.2-28.28-60.441-38.44-12.989-6.19-26.9-12.28-40.349-18.16-11.57-5.06-23.54-10.3-34.7-15.51a7.937,7.937,0,0,0-3.38-.75,8,8,0,0,0-3.39,15.25c11.46,5.34,23.56,10.64,35.27,15.76,21.58,9.45,43.89,19.21,62.049,29.26,14.9,8.21,26.161,16.2,33.471,23.74,7.045,7.294,10.725,14.057,11.449,21.066A104,104,0,0,1,288,392V266.639a101.514,101.514,0,0,0,8.6,7.871,8,8,0,1,0,10.129-12.38c-6.279-5.14-11.029-10.27-14.12-15.25A27.622,27.622,0,0,1,288,232V216a105.614,105.614,0,0,1,.567-10.893,8,8,0,0,0-15.914-1.655A121.945,121.945,0,0,0,272,216V392a120,120,0,0,0,239.516,10.711A7.918,7.918,0,0,0,512,400c0-.973-.046-1.942-.115-2.909.07-1.689.115-3.385.115-5.091V216c0-1.773-.048-3.558-.128-5.346C511.951,209.766,512,208.881,512,208Z"/><path d="M350.972,89.115a26.115,26.115,0,0,0,11.092,2.494,25.828,25.828,0,0,0,16.581-6.066L392,74.414l13.355,11.129h0a25.828,25.828,0,0,0,16.581,6.066,26.115,26.115,0,0,0,11.092-2.494A25.766,25.766,0,0,0,448,65.569V46.431a26,26,0,0,0-42.645-19.974L400,30.92V8a8,8,0,0,0-16,0V30.919l-5.355-4.462A26,26,0,0,0,336,46.431V65.569A25.766,25.766,0,0,0,350.972,89.115ZM400,56V51.747l15.6-13A10,10,0,0,1,432,46.431V65.569a10,10,0,0,1-16.4,7.682h0l-15.6-13Zm-48-9.569a9.784,9.784,0,0,1,5.759-9.056,10.108,10.108,0,0,1,4.3-.981,9.85,9.85,0,0,1,6.34,2.354l15.6,13v8.506l-15.6,13A10,10,0,0,1,352,65.569Z"/><circle cx="120" cy="184" r="8"/><circle cx="392" cy="184" r="8"/><path d="M296,40a40,40,0,1,0-74.643,20.006,8,8,0,0,0,13.849-8.012A24,24,0,1,1,280,40c0,10.319-12.377,20.161-21.414,27.347a101.26,101.26,0,0,0-8.243,7L248,76.687V104a8,8,0,0,0,16,0V83.547c1.332-1.123,2.911-2.379,4.544-3.677C279.478,71.177,296,58.039,296,40Z"/><circle cx="256" cy="136" r="8"/></g></g></svg>
