<svg height="512pt" viewBox="0 0 512.00006 512" width="512pt" xmlns="http://www.w3.org/2000/svg"><path d="m16.402344 438.371094c-14.035156 17.570312-11.164063 43.191406 6.40625 57.226562 17.574218 14.035156 43.195312 11.164063 57.226562-6.40625l137.273438-164.878906-29.621094-29.621094c-177.835938 148.058594-167.523438 138.96875-171.285156 143.679688zm0 0" fill="#ce795f"/><path d="m196.101562 303.105469-.007812.007812c-.710938.714844-1.296875 1.351563-1.839844 2l-137.320312 164.941407-.335938.414062c-1.789062 2.238281-4.339844 3.644531-7.191406 3.964844-.40625.042968-.820312.066406-1.226562.066406-2.425782 0-4.726563-.808594-6.648438-2.34375-5.289062-4.226562-11.921875-6.550781-18.679688-6.550781-5.292968 0-10.394531 1.375-14.921874 3.976562 1.421874 9.890625 6.457031 19.285157 14.878906 26.015625 17.574218 14.035156 43.195312 11.164063 57.226562-6.40625l137.273438-164.878906zm0 0" fill="#a05a4b"/><path d="m168.492188 271.636719c-4.320313 3.597656-8.53125 7.101562-12.636719 10.519531-12.480469 10.390625-14.417969 28.816406-4.394531 41.59375 5.324218 6.789062 11.09375 13.300781 17.292968 19.496094 6.195313 6.199218 12.707032 11.96875 19.496094 17.292968 12.777344 10.023438 31.207031 8.078126 41.597656-4.398437l28.039063-33.679687-68.347657-68.347657zm0 0" fill="#8b9ba9"/><path d="m504.5 191.75c0 101.757812-82.492188 184.25-184.25 184.25s-184.25-82.492188-184.25-184.25 82.492188-184.25 184.25-184.25 184.25 82.492188 184.25 184.25zm0 0" fill="#8b9ba9"/><path d="m427.695312 42.066406c-10.078124 11.851563-9.417968 29.570313 1.625 40.613282 60.144532 60.140624 60.144532 158 0 218.140624-29.085937 29.085938-67.820312 45.105469-109.070312 45.105469s-79.984375-16.019531-109.070312-45.105469c-5.65625-5.65625-13.179688-8.773437-21.179688-8.773437-7.140625 0-14.011719 2.539063-19.433594 7.148437 33.445313 46.511719 88.023438 76.804688 149.683594 76.804688 101.757812 0 184.25-82.492188 184.25-184.25 0-61.660156-30.292969-116.238281-76.804688-149.683594zm0 0" fill="#6c7a88"/><path d="m320.25 323.5c-72.648438 0-131.75-59.101562-131.75-131.75s59.101562-131.75 131.75-131.75 131.75 59.101562 131.75 131.75-59.101562 131.75-131.75 131.75zm0 0" fill="#00f4f5"/><path d="m402.160156 88.636719c17.914063 22.503906 28.636719 50.976562 28.636719 81.910156 0 72.648437-59.105469 131.75-131.75 131.75-30.933594 0-59.40625-10.722656-81.910156-28.636719 24.15625 30.347656 61.398437 49.839844 103.113281 49.839844 72.644531 0 131.75-59.101562 131.75-131.75 0-41.714844-19.492188-78.957031-49.839844-103.113281zm0 0" fill="#00bac0"/><path d="m284.246094 103.617188c-19.6875 0-35.707032 16.019531-35.707032 35.707031 0 8.285156 6.714844 15 15 15 8.285157 0 15-6.714844 15-15 0-3.144531 2.558594-5.707031 5.707032-5.707031 8.28125 0 15-6.714844 15-15 0-8.28125-6.71875-15-15-15zm0 0" fill="#60f375"/><path d="m233.535156 203.625c-8.28125 0-15 6.71875-15 15 0 8.285156 6.71875 15 15 15 3.148438 0 5.707032 2.5625 5.707032 5.707031 0 8.285157 6.71875 15 15 15 8.285156 0 15-6.714843 15-15 0-19.6875-16.015626-35.707031-35.707032-35.707031zm0 0" fill="#00bd4f"/><path d="m384.25 203.625c-8.28125 0-15 6.71875-15 15 0 3.148438-2.558594 5.707031-5.703125 5.707031-8.285156 0-15 6.71875-15 15 0 8.285157 6.714844 15 15 15 19.6875 0 35.703125-16.015625 35.703125-35.707031 0-8.28125-6.714844-15-15-15zm0 0" fill="#60f375"/><path d="m319.5 273.015625c-2.226562-2.222656-2.226562-5.84375 0-8.070313 5.859375-5.855468 5.859375-15.351562 0-21.210937s-15.355469-5.859375-21.214844 0c-13.917968 13.921875-13.917968 36.574219.003906 50.496094 5.855469 5.859375 15.355469 5.859375 21.210938 0 5.859375-5.859375 5.859375-15.355469 0-21.214844zm0 0" fill="#00bd4f"/><path d="m340.382812 161.578125c-5.859374-5.855469-15.355468-5.855469-21.214843 0l-25.847657 25.847656c-5.855468 5.859375-5.855468 15.355469 0 21.214844 2.929688 2.929687 6.769532 4.394531 10.609376 4.394531 3.835937 0 7.675781-1.464844 10.605468-4.394531l25.847656-25.847656c5.859376-5.859375 5.859376-15.355469 0-21.214844zm0 0" fill="#60f375"/><path d="m390.386719 127.421875-25.847657-25.847656c-5.859374-5.855469-15.355468-5.855469-21.214843 0-5.855469 5.859375-5.855469 15.355469 0 21.214843l25.847656 25.847657c2.929687 2.929687 6.769531 4.390625 10.605469 4.390625 3.839844 0 7.679687-1.460938 10.605468-4.390625 5.859376-5.859375 5.859376-15.355469.003907-21.214844zm0 0" fill="#00bd4f"/><path d="m320.25 0c-105.730469 0-191.75 86.019531-191.75 191.75 0 66.894531 34.675781 128.554688 91.476562 163.433594l-.027343.015625c-3.828125 2.769531-8.390625 4.238281-13.179688 4.25-8.492187-.015625-12.910156-4.34375-13.910156-4.820313-.003906-.011718-.609375-.503906-.621094-.511718-6.375-5.035157-12.492187-10.480469-18.1875-16.179688-5.691406-5.6875-11.140625-11.808594-16.179687-18.1875-3.222656-4.128906-5.25-8.460938-5.320313-14.3125-.039062-4.089844-3.398437-7.429688-7.488281-7.429688l-.082031.011719c-4.105469.019531-7.449219 3.382813-7.429688 7.550781v.019532c.089844 8.929687 3.40625 17.273437 8.4375 23.320312.722657 1 8.175781 10.367188 17.460938 19.640625 4.316406 4.3125 8.859375 8.476563 13.558593 12.460938l-.019531.007812c-.144531.175781-102.671875 123.304688-102.808593 123.488281-11.425782 14.277344-32.28125 16.730469-46.691407 5.230469-7.929687-6.339843-12.476562-15.808593-12.488281-25.988281 0-7.386719 2.292969-14.785156 8.171875-21.871094.15625-.277344 2.167969-2.300781 17.40625-15 14.308594-11.972656 42.042969-35.007812 93.171875-77.539062 3.171875-2.640625 3.609375-7.378906.960938-10.558594-2.632813-3.1875-7.382813-3.605469-10.5625-.972656-56.964844 47.394531-85.273438 70.890625-98.839844 82.292968-8.527344 7.175782-25.308594 18.582032-25.308594 43.648438-.0234375 14.207031 6.277344 28.257812 18.128906 37.710938 8.59375 6.867187 19.175782 10.539062 30.042969 10.539062h.058594c14.046875 0 28.117187-6.171875 37.667969-18.128906 0 0 0 0 0-.011719l103.144531-123.886719c5.425781 2.90625 11.527343 4.46875 17.695312 4.46875h.0625c10.257813 0 19.949219-4.167968 27-11.5 26.648438 13.464844 56.402344 20.558594 86.449219 20.558594 105.730469 0 191.75-86.019531 191.75-191.75s-86.019531-191.75-191.75-191.75zm0 368.5c-29.578125 0-58.84375-7.449219-84.636719-21.546875 0-.003906-.003906-.003906-.003906-.003906-56.941406-31.121094-92.109375-90.582031-92.109375-155.199219 0-97.460938 79.289062-176.75 176.75-176.75s176.75 79.289062 176.75 176.75-79.289062 176.75-176.75 176.75zm0 0"/><path d="m320.25 52.5c-76.78125 0-139.25 62.46875-139.25 139.25s62.46875 139.25 139.25 139.25 139.25-62.46875 139.25-139.25-62.46875-139.25-139.25-139.25zm0 263.5c-68.511719 0-124.25-55.738281-124.25-124.25s55.738281-124.25 124.25-124.25 124.25 55.738281 124.25 124.25-55.738281 124.25-124.25 124.25zm0 0"/><path d="m306.742188 118.617188c0-12.40625-10.09375-22.5-22.5-22.5-23.820313 0-43.203126 19.386718-43.203126 43.207031 0 12.410156 10.09375 22.5 22.5 22.5 11.824219 0 21.550782-9.167969 22.433594-20.769531 11.601563-.886719 20.769532-10.609376 20.769532-22.4375zm-35.703126 20.707031c0 4.136719-3.363281 7.5-7.5 7.5-4.136718 0-7.5-3.363281-7.5-7.5 0-15.550781 12.652344-28.207031 28.203126-28.207031 4.136718 0 7.5 3.367187 7.5 7.5 0 4.136718-3.363282 7.5-7.5 7.5-7.28125 0-13.203126 5.925781-13.203126 13.207031zm0 0"/><path d="m233.535156 196.125c-12.40625 0-22.5 10.09375-22.5 22.5 0 11.828125 9.171875 21.550781 20.773438 22.4375.886718 11.601562 10.609375 20.769531 22.433594 20.769531 12.40625 0 22.5-10.09375 22.5-22.5 0-23.824219-19.382813-43.207031-43.207032-43.207031zm20.707032 50.707031c-4.136719 0-7.5-3.363281-7.5-7.5 0-7.28125-5.925782-13.207031-13.207032-13.207031-4.136718 0-7.5-3.363281-7.5-7.5s3.363282-7.5 7.5-7.5c15.554688 0 28.207032 12.652344 28.207032 28.207031 0 4.136719-3.363282 7.5-7.5 7.5zm0 0"/><path d="m384.25 196.125c-11.824219 0-21.550781 9.171875-22.433594 20.773438-11.601562.886718-20.769531 10.609374-20.769531 22.433593 0 12.40625 10.09375 22.5 22.5 22.5 23.820313 0 43.203125-19.382812 43.203125-43.207031 0-12.40625-10.09375-22.5-22.5-22.5zm-20.703125 50.707031c-4.136719 0-7.5-3.363281-7.5-7.5s3.363281-7.5 7.5-7.5c7.28125 0 13.203125-5.925781 13.203125-13.207031 0-4.136719 3.363281-7.5 7.5-7.5s7.5 3.363281 7.5 7.5c0 15.554688-12.652344 28.207031-28.203125 28.207031zm0 0"/><path d="m325.804688 238.429688c-4.25-4.25-9.902344-6.589844-15.910157-6.589844-6.011719 0-11.660156 2.339844-15.910156 6.589844-8.148437 8.148437-12.636719 19-12.636719 30.550781 0 17.058593 11.265625 37.140625 28.546875 37.140625 19.203125 0 29.535157-22.632813 17.085938-37.140625 7.574219-8.808594 7.230469-22.144531-1.175781-30.550781zm-10.609376 39.890624c4.730469 4.726563 1.328126 12.804688-5.300781 12.804688-2.003906 0-3.886719-.78125-5.304687-2.199219-5.316406-5.316406-8.246094-12.398437-8.246094-19.945312 0-7.542969 2.929688-14.625 8.246094-19.945313 4.675781-4.675781 12.804687-1.402344 12.804687 5.304688 0 6.035156-6.066406 5.957031-6.0625 14.640625 0 3.53125 1.371094 6.847656 3.863281 9.339843zm0 0"/><path d="m288.019531 182.121094c-4.25 4.25-6.589843 9.902344-6.589843 15.910156 0 6.011719 2.339843 11.660156 6.589843 15.910156s9.898438 6.589844 15.910157 6.589844c6.011718 0 11.660156-2.339844 15.910156-6.589844l25.84375-25.84375c4.25-4.25 6.59375-9.902344 6.59375-15.910156 0-6.011719-2.339844-11.660156-6.589844-15.910156 0 0 0 0-.003906 0-4.246094-4.25-9.898438-6.589844-15.90625-6.589844-6.011719 0-11.664063 2.339844-15.910156 6.589844zm41.753907-17.433594c2.003906 0 3.886718.777344 5.304687 2.195312 1.417969 1.417969 2.195313 3.300782 2.195313 5.304688 0 2-.777344 3.882812-2.195313 5.300781l-25.847656 25.847657c-1.414063 1.417968-3.300781 2.195312-5.300781 2.195312-2.003907 0-3.886719-.777344-5.304688-2.195312-1.417969-1.417969-2.195312-3.300782-2.195312-5.304688s.777343-3.886719 2.195312-5.300781l25.847656-25.847657c1.417969-1.417968 3.300782-2.195312 5.300782-2.195312zm0 0"/><path d="m363.867188 153.9375c4.25 4.25 9.902343 6.589844 15.910156 6.589844 6.011718 0 11.660156-2.339844 15.910156-6.589844s6.589844-9.898438 6.589844-15.910156c0-6.007813-2.339844-11.660156-6.589844-15.910156l-25.847656-25.84375c-4.25-4.25-9.898438-6.589844-15.910156-6.589844-6.007813 0-11.660157 2.339844-15.90625 6.589844-4.25 4.25-6.59375 9.898437-6.59375 15.910156 0 6.007812 2.34375 11.660156 6.589843 15.910156zm-15.238282-47.058594c1.417969-1.417968 3.300782-2.195312 5.304688-2.195312 2 0 3.886718.78125 5.300781 2.195312l25.847656 25.847656c1.417969 1.414063 2.195313 3.296876 2.195313 5.300782s-.777344 3.886718-2.195313 5.304687c-1.414062 1.417969-3.300781 2.195313-5.304687 2.195313s-3.886719-.78125-5.300782-2.195313l-25.847656-25.847656c-1.417968-1.417969-2.195312-3.296875-2.195312-5.300781s.777344-3.886719 2.195312-5.304688zm0 0"/><path d="m233.03125 165.507812c0 4.140626-3.359375 7.5-7.5 7.5-4.144531 0-7.5-3.359374-7.5-7.5 0-4.144531 3.355469-7.5 7.5-7.5 4.140625 0 7.5 3.355469 7.5 7.5zm0 0"/><path d="m323.035156 85.5c0 4.144531-3.355468 7.5-7.5 7.5-4.140625 0-7.5-3.355469-7.5-7.5 0-4.140625 3.359375-7.5 7.5-7.5 4.144532 0 7.5 3.359375 7.5 7.5zm0 0"/><path d="m433.042969 175.507812c0 4.140626-3.359375 7.5-7.5 7.5s-7.5-3.359374-7.5-7.5c0-4.144531 3.359375-7.5 7.5-7.5s7.5 3.355469 7.5 7.5zm0 0"/><path d="m373.039062 285.515625c0 4.140625-3.359374 7.5-7.5 7.5-4.140624 0-7.5-3.359375-7.5-7.5 0-4.144531 3.359376-7.5 7.5-7.5 4.140626 0 7.5 3.355469 7.5 7.5zm0 0"/><path d="m373.039062 185.507812c0 4.140626-3.359374 7.5-7.5 7.5-4.140624 0-7.5-3.359374-7.5-7.5 0-4.144531 3.359376-7.5 7.5-7.5 4.140626 0 7.5 3.355469 7.5 7.5zm0 0"/><path d="m273.03125 275.511719c0 4.144531-3.355469 7.5-7.5 7.5-4.140625 0-7.5-3.355469-7.5-7.5 0-4.140625 3.359375-7.5 7.5-7.5 4.144531 0 7.5 3.359375 7.5 7.5zm0 0"/></svg>