<svg id="Capa_1" enable-background="new 0 0 512 512" height="512" viewBox="0 0 512 512" width="512" xmlns="http://www.w3.org/2000/svg"><g><path d="m512 256c0 66.469-25.333 127.022-66.87 172.53-26.455 28.984-63.346 24.734-100.589 39.154-24.747 9.582-47.493 42.56-75.271 43.978-3.845.196-7.712.308-11.6.333-.556.004-56.562-73.907-57.119-73.907-81.279 0-105.083-20.285-145.157-23.033-34.68-43.681-55.394-98.949-55.394-159.055 0-141.385 114.615-256 256-256s256 114.615 256 256z" fill="#dd5790"/><g><path d="m365.38 0h-20.728c-60.117 0-108.852 48.735-108.852 108.852v102.332c0 60.117 48.735 108.852 108.852 108.852h20.728c60.117 0 108.852-48.735 108.852-108.852v-102.332c0-60.117-48.735-108.852-108.852-108.852z" fill="#f9f6f6"/><path d="m384.95 318.282c-6.35 1.16-12.89 1.76-19.57 1.76h-20.73c-60.12 0-108.85-48.74-108.85-108.86v-102.33c0-60.12 48.73-108.85 108.85-108.85h20.73c6.68 0 13.22.6 19.57 1.76-50.79 9.21-89.3 53.65-89.3 107.09v102.33c0 53.44 38.51 97.89 89.3 107.1z" fill="#dddaec"/><path d="m445.13 411.35v17.18c-44.04 48.24-106.28 79.58-175.86 83.13v-100.31c0-35.2 28.53-63.74 63.73-63.74h48.39c35.2 0 63.74 28.54 63.74 63.74z" fill="#9d66d5"/><path d="m375.42 347.61c-35.2 0-63.75 28.54-63.75 63.74v94.57c-13.75 3.05-27.92 5-42.4 5.74v-100.31c0-35.2 28.53-63.74 63.74-63.74z" fill="#734a9b"/><path d="m385.753 276.45v75.518c0 7.967-3.231 15.177-8.451 20.389-5.212 5.22-12.422 8.451-20.389 8.451-5.612 0-10.849-1.598-15.27-4.379-8.145-5.093-13.57-14.148-13.57-24.461v-75.518z" fill="#ffddce"/><g fill="#ffcbbe"><path d="m385.753 276.45v71.972c-3.928.553-7.933.833-12.014.833-16.758 0-32.411-4.761-45.666-13.009v-59.796z"/><path d="m341.643 305.766v70.663c-8.145-5.093-13.57-14.148-13.57-24.461v-46.202z"/><path d="m465.875 226.217h-191.636c-12.407 0-22.464-10.058-22.464-22.464 0-12.407 10.058-22.464 22.464-22.464h191.636c12.407 0 22.464 10.058 22.464 22.464 0 12.406-10.057 22.464-22.464 22.464z"/></g><path d="m274.239 213.35c-5.292 0-9.597-4.305-9.597-9.597s4.305-9.597 9.597-9.597h191.635c5.292 0 9.597 4.305 9.597 9.597s-4.305 9.597-9.597 9.597z" fill="#eaac9d"/><path d="m460.388 165.539v84.06c0 47.85-38.79 86.65-86.65 86.65-47.85 0-86.65-38.8-86.65-86.65v-84.06c0-4.59.36-9.1 1.05-13.5h71.66c5.01 0 9.85-.73 14.42-2.1 8.49-2.52 16.05-7.22 22.01-13.45 4.46-4.64 8.04-10.13 10.47-16.2 7.46 18.6 25.64 31.75 46.91 31.75h5.73c.69 4.4 1.05 8.91 1.05 13.5z" fill="#ffddce"/><path d="m395.688 333.439c-7.01 1.84-14.37 2.81-21.95 2.81-47.85 0-86.65-38.8-86.65-86.65v-84.06c0-4.59.36-9.1 1.05-13.5h43.89c-.69 4.4-1.05 8.91-1.05 13.5v84.06c0 40.27 27.48 74.13 64.71 83.84z" fill="#ffcbbe"/><path d="m396.228 136.489v90.19h-22.01v-76.74c8.49-2.52 16.05-7.22 22.01-13.45z" fill="#ffcbbe"/><path d="m398.401 210.528h-17.727c-6.808 0-12.327 5.519-12.327 12.327 0 6.808 5.519 12.327 12.327 12.327h17.727c6.808 0 12.327-5.519 12.327-12.327.001-6.808-5.518-12.327-12.327-12.327z" fill="#ffcbbe"/><path d="m337.292 178.998c-5.881 0-11.76-2.238-16.236-6.715-2.734-2.734-2.734-7.166 0-9.899 2.733-2.734 7.166-2.734 9.899 0 3.495 3.494 9.18 3.494 12.674 0 2.734-2.734 7.167-2.733 9.899 0 2.734 2.734 2.733 7.166 0 9.899-4.475 4.476-10.356 6.715-16.236 6.715z" fill="#f9f6f6"/><path d="m432.823 178.998c-5.88 0-11.76-2.238-16.237-6.714-2.733-2.734-2.734-7.166 0-9.899 2.733-2.734 7.165-2.734 9.899 0 3.494 3.494 9.18 3.494 12.674 0 2.733-2.734 7.166-2.734 9.899 0 2.734 2.734 2.734 7.166 0 9.899-4.475 4.476-10.355 6.714-16.235 6.714z" fill="#f9f6f6"/><path d="m352.909 192.007h-3.225c-5.186 0-9.391-4.204-9.391-9.391v-13.944c0-5.186 4.204-9.391 9.391-9.391h3.225c5.186 0 9.391 4.204 9.391 9.391v13.944c-.001 5.187-4.205 9.391-9.391 9.391z" fill="#21386b"/><path d="m420.761 192.007h-3.225c-5.186 0-9.391-4.204-9.391-9.391v-13.944c0-5.186 4.204-9.391 9.391-9.391h3.225c5.186 0 9.391 4.204 9.391 9.391v13.944c-.001 5.187-4.205 9.391-9.391 9.391z" fill="#21386b"/><path d="m394.767 273.813h-19.287c-4.04 0-7.316-3.275-7.316-7.316 0-4.04 3.275-7.316 7.316-7.316h19.287c4.04 0 7.316 3.275 7.316 7.316 0 4.04-3.276 7.316-7.316 7.316z" fill="#21386b"/><path d="m432.11 270.487c-2.939 0-5.321-2.382-5.321-5.321v-13.302c0-2.939 2.382-5.321 5.321-5.321 2.939 0 5.321 2.382 5.321 5.321v13.302c0 2.939-2.382 5.321-5.321 5.321z" fill="#ffcbbe"/><path d="m346.413 270.487c-2.939 0-5.321-2.382-5.321-5.321v-13.302c0-2.939 2.382-5.321 5.321-5.321 2.939 0 5.321 2.382 5.321 5.321v13.302c0 2.939-2.382 5.321-5.321 5.321z" fill="#ffcbbe"/></g><g><path d="m295.198 125.335h-12.34c5.213 0 9.438-4.226 9.438-9.438 0-5.213-4.226-9.438-9.438-9.438h-62.375c-5.213 0-9.438 4.226-9.438 9.438 0 5.213 4.226 9.438 9.438 9.438h12.34c-5.213 0-9.438 4.226-9.438 9.438s4.226 9.438 9.438 9.438h-18.51c-5.213 0-9.438 4.226-9.438 9.438 0 5.213 4.226 9.438 9.438 9.438h62.375c5.213 0 9.438-4.226 9.438-9.438 0-5.213-4.226-9.438-9.438-9.438h18.51c5.213 0 9.438-4.226 9.438-9.438s-4.226-9.438-9.438-9.438z" fill="#f9f6f6"/><path d="m257.67 440.9v71.09c-.55.01-1.11.01-1.67.01-81.28 0-153.71-37.88-200.6-96.95 10.53-28.67 38.07-49.12 70.39-49.12h56.91c41.4 0 74.97 33.56 74.97 74.97z" fill="#78c2a4"/><path d="m175.67 365.93c-41.4 0-74.97 33.56-74.97 74.97v18.63c-16.88-12.9-32.1-27.85-45.3-44.48 10.52-28.67 38.06-49.12 70.39-49.12z" fill="#66b394"/><path d="m187.832 282.23v88.82c0 9.37-3.8 17.85-9.94 23.98-6.13 6.14-14.61 9.94-23.98 9.94-6.6 0-12.76-1.88-17.96-5.15-9.58-5.99-15.96-16.64-15.96-28.77v-88.82z" fill="#ffddce"/><path d="m187.832 282.23v84.65c-4.62.65-9.33.98-14.13.98-19.71 0-38.12-5.6-53.71-15.3v-70.33z" fill="#ffcbbe"/><path d="m135.952 316.71v83.11c-9.58-5.99-15.96-16.64-15.96-28.77v-54.34z" fill="#ffcbbe"/><path d="m282.067 223.149h-225.392c-14.592 0-26.422-11.829-26.422-26.422 0-14.592 11.829-26.422 26.422-26.422h225.392c14.592 0 26.422 11.829 26.422 26.422 0 14.593-11.829 26.422-26.422 26.422z" fill="#ffcbbe"/><path d="m56.675 208.015c-6.224 0-11.288-5.064-11.288-11.287 0-6.224 5.063-11.288 11.288-11.288h225.392c6.224 0 11.288 5.064 11.288 11.287s-5.063 11.288-11.288 11.288z" fill="#eaac9d"/><g><path d="m173.702 352.561c-56.285 0-101.912-45.627-101.912-101.912v-97.255c0-56.284 45.627-101.912 101.912-101.912 56.284 0 101.912 45.627 101.912 101.912v97.255c-.001 56.284-45.628 101.912-101.912 101.912z" fill="#ffddce"/><path d="m197 349.879c-7.48 1.75-15.28 2.68-23.3 2.68-56.28 0-101.91-45.63-101.91-101.91v-97.26c0-56.28 45.63-101.91 101.91-101.91 8.02 0 15.82.93 23.3 2.68-45.07 10.53-78.63 50.96-78.63 99.23v97.26c0 48.27 33.56 88.7 78.63 99.23z" fill="#ffcbbe"/></g><path d="m282.067 192.007c-4.408 0-7.981 3.573-7.981 7.981v5.321c0 4.408 3.573 7.981 7.981 7.981 4.408 0 7.981-3.573 7.981-7.981v-5.321c0-4.407-3.573-7.981-7.981-7.981z" fill="#f9f6f6"/><path d="m200.149 223.688h-25.882v-55.968c0-4.732 3.836-8.569 8.569-8.569h8.745c4.732 0 8.569 3.836 8.569 8.569v55.968z" fill="#ffcbbe"/><path d="m224.494 134.81h-63.183c-3.857 0-6.983-3.127-6.983-6.983 0-3.857 3.127-6.983 6.983-6.983h63.183c3.857 0 6.983 3.127 6.983 6.983 0 3.857-3.126 6.983-6.983 6.983z" fill="#ffcbbe"/><circle cx="242.032" cy="187.352" fill="#e4f6ff" r="35.249"/><circle cx="151.667" cy="187.352" fill="#e4f6ff" r="35.249"/><path d="m170.596 131.485h-17.7c-6.075 0-11 4.925-11 11 0 6.075 4.925 11 11 11h17.7c6.075 0 11-4.925 11-11 0-6.075-4.925-11-11-11z" fill="#f9f6f6"/><path d="m247.128 131.485h-17.7c-6.075 0-11 4.925-11 11 0 6.075 4.925 11 11 11h17.7c6.075 0 11-4.925 11-11 0-6.075-4.925-11-11-11z" fill="#f9f6f6"/><path d="m151.918 197.267h-9.225c-4.6 0-8.328-3.729-8.328-8.328v-5.229c0-4.6 3.729-8.328 8.328-8.328h9.225c4.6 0 8.328 3.729 8.328 8.328v5.229c.001 4.599-3.728 8.328-8.328 8.328z" fill="#21386b"/><path d="m233.722 197.267h-9.225c-4.6 0-8.328-3.729-8.328-8.328v-5.229c0-4.6 3.729-8.328 8.328-8.328h9.225c4.6 0 8.328 3.729 8.328 8.328v5.229c.001 4.599-3.728 8.328-8.328 8.328z" fill="#21386b"/><path d="m242.032 145.603c-20.81 0-38.109 15.305-41.24 35.25h-13.875v13h13.875c3.132 19.944 20.431 35.249 41.24 35.249 23.021 0 41.75-18.729 41.75-41.749-.001-23.022-18.729-41.75-41.75-41.75zm0 70.498c-15.852 0-28.749-12.897-28.749-28.749 0-15.853 12.897-28.75 28.749-28.75 15.853 0 28.75 12.897 28.75 28.75-.001 15.852-12.898 28.749-28.75 28.749z" fill="#78c2a4"/><path d="m202.708 204.696h-20.85c-8.008 0-14.499 6.491-14.499 14.499 0 8.008 6.491 14.499 14.499 14.499h20.85c8.008 0 14.499-6.491 14.499-14.499 0-8.008-6.491-14.499-14.499-14.499z" fill="#ffcbbe"/><path d="m195.895 273.147h-16.627c-4.591 0-8.314 3.722-8.314 8.314 0 4.591 3.722 8.314 8.314 8.314h16.627c4.591 0 8.314-3.722 8.314-8.314 0-4.591-3.722-8.314-8.314-8.314z" fill="#21386b"/><path d="m151.667 145.603c-19.972 0-36.705 14.1-40.789 32.866l-37.27-14.236c-3.354-1.28-7.11.399-8.392 3.753-1.281 3.354.399 7.11 3.753 8.392l41.229 15.748c2.377 20.78 20.062 36.975 41.468 36.975 23.021 0 41.749-18.729 41.749-41.749.002-23.021-18.727-41.749-41.748-41.749zm0 70.498c-15.853 0-28.75-12.897-28.75-28.749 0-15.853 12.897-28.75 28.75-28.75 15.852 0 28.749 12.897 28.749 28.75.001 15.852-12.896 28.749-28.749 28.749z" fill="#78c2a4"/><path d="m122.253 125.335h-12.34c5.213 0 9.438-4.226 9.438-9.438 0-5.213-4.226-9.438-9.438-9.438h-62.376c-5.213 0-9.438 4.226-9.438 9.438 0 5.213 4.226 9.438 9.438 9.438h12.34c-5.213 0-9.438 4.226-9.438 9.438s4.226 9.438 9.438 9.438h-18.51c-5.213 0-9.438 4.226-9.438 9.438 0 5.213 4.226 9.438 9.438 9.438h62.375c5.213 0 9.438-4.226 9.438-9.438 0-5.213-4.226-9.438-9.438-9.438h18.51c5.213 0 9.438-4.226 9.438-9.438s-4.225-9.438-9.437-9.438z" fill="#f9f6f6"/><g fill="#ffcbbe"><path d="m206.523 111.533h-27.242c-3.857 0-6.983-3.127-6.983-6.983 0-3.857 3.127-6.983 6.983-6.983h27.242c3.857 0 6.983 3.127 6.983 6.983.001 3.856-3.126 6.983-6.983 6.983z"/><path d="m140.804 302.977c-2.761 0-5-2.239-5-5v-29.416c0-18.564 15.104-33.667 33.668-33.667h6.36c2.761 0 5 2.239 5 5s-2.239 5-5 5h-6.36c-13.051 0-23.668 10.617-23.668 23.667v29.416c0 2.761-2.239 5-5 5z"/><path d="m245.536 302.977c-2.761 0-5-2.239-5-5v-29.416c0-13.05-10.617-23.667-23.668-23.667h-6.36c-2.761 0-5-2.239-5-5s2.239-5 5-5h6.36c18.564 0 33.668 15.103 33.668 33.667v29.416c0 2.761-2.239 5-5 5z"/><path d="m192.902 312.067h-9.976c-2.761 0-5-2.239-5-5s2.239-5 5-5h9.976c2.761 0 5 2.239 5 5s-2.238 5-5 5z"/></g><path d="m68.532 192.007c-4.408 0-7.981 3.573-7.981 7.981v5.321c0 4.408 3.573 7.981 7.981 7.981 4.408 0 7.981-3.573 7.981-7.981v-5.321c0-4.407-3.573-7.981-7.981-7.981z" fill="#f9f6f6"/></g></g></svg>